<svg height="464pt" viewBox="-27 0 464 464" width="464pt" xmlns="http://www.w3.org/2000/svg"><g fill="#444b54"><path d="m252.40625 366.800781c-6.398438-1.601562-12.796875 2.398438-14.398438 8.800781-11.601562 47.199219-26 64.398438-33.199218 64.398438-4.800782 0-16.402344-9.601562-27.601563-45.199219-10.398437-33.199219-17.199219-79.199219-19.597656-129.601562-.402344-6.800781-6-11.597657-12.402344-11.597657-6.800781.398438-11.597656 6-11.597656 12.398438 2 52.398438 9.597656 100.800781 20.398437 135.601562 13.199219 41.597657 30 62.398438 50.800782 62.398438 23.597656 0 43.199218-28.800781 56.398437-82.800781 1.601563-6.398438-2.398437-13.199219-8.800781-14.398438zm0 0"/><path d="m332.808594 232c24.800781-20 44.800781-39.601562 58-57.199219 18.398437-24.402343 23.597656-44.402343 14.800781-59.199219-23.601563-40.402343-136.800781-3.601562-236.800781 54-3.199219 2-6.800782 4-10 6 7.597656-105.601562 33.597656-151.601562 46-151.601562 7.199218 0 21.597656 17.199219 33.199218 64.398438 1.601563 6.402343 8 10.402343 14.398438 8.800781 6.402344-1.597657 10.402344-8 8.800781-14.398438-13.199219-54-32.800781-82.800781-56.398437-82.800781-45.199219 0-66.402344 102.800781-70.800782 191.199219-12.800781 8.402343-25.601562 17.199219-37.199218 26-64-50.398438-76.402344-81.597657-72-89.199219 3.597656-6 25.597656-10 72.398437 3.601562 6.402344 2 13.199219-1.601562 14.800781-8 2-6.402343-1.601562-13.203124-8-14.800781-53.601562-15.601562-88-13.199219-100 7.597657-19.601562 33.601562 37.199219 86.800781 72.800782 115.601562-54.402344 44-88.800782 88.800781-72.800782 116 6.800782 11.601562 20.800782 17.601562 41.601563 17.601562 15.597656 0 35.199219-3.203124 58.398437-10 6.398438-2 10-8.402343 8-14.800781-2-6.402343-8.398437-10-14.800781-8-46.800781 13.199219-69.199219 9.199219-72.398437 3.199219-8-14 39.597656-78.398438 156-145.601562 116.398437-67.199219 196-76.398438 204-62.398438 4.398437 7.601562-8 38.800781-71.601563 88.800781-15.199219-11.199219-31.199219-22-47.597656-32.402343-5.601563-3.597657-13.203125-2-16.402344 4-3.597656 5.601562-2 13.203124 4 16.402343 19.601563 12 36.402344 24 51.601563 35.199219 1.199218 1.199219 2 2 3.597656 2.800781 59.601562 46.398438 82.402344 83.199219 76.402344 93.199219-6.800782 11.601562-63.199219 8-154.402344-36 3.203125-2 6.800781-3.601562 10-5.601562 14.402344-8.398438 28.800781-17.199219 42-26 5.601562-3.597657 7.203125-11.199219 3.203125-16.796876-3.601563-5.601562-11.203125-7.203124-16.800781-3.203124-13.199219 8.800781-26.800782 17.203124-40.800782 25.203124-9.601562 5.597657-19.601562 11.199219-29.601562 16.398438-.398438.398438-.796875.398438-1.199219.800781-.398437 0-.398437.398438-.800781.398438-.398438 0-.398438.402343-.398438.402343-.398437.398438-.800781.796876-1.199218 1.199219 0 0 0 .398438-.402344.398438-.398438.402343-.796875 1.199219-1.199219 1.601562 0 .398438 0 .398438-.398437.800781-.402344.398438-.402344.796876-.402344 1.597657 0 .402343 0 .800781-.398438 1.199219 0 .402343 0 .800781-.398437 1.203124v1.199219 1.199219c0 .398438 0 .800781.398437 1.199219 0 .402343 0 .800781.398438 1.199219 0 .402343.402344.800781.402344 1.601562 0 .398438 0 .398438.398437.800781.402344.800781 1.199219 1.597657 1.601563 2.398438 0 0 .398437.402343.398437.402343.402344.398438 1.199219 1.199219 2 1.597657.402344 0 .402344.402343.800781.402343 0 0 .398438 0 .398438.398438 46.402344 24.398438 91.601562 42 127.601562 50 14.398438 3.199219 26.800782 4.800781 37.601563 4.800781 20.796875 0 34.398437-6 41.199219-17.601562 16.800781-29.199219-18.800782-74-72-117.199219zm0 0"/></g></svg>